Coordinates
version=1
nRows=43
nColumns=12
inDegrees=yes

Units are S.I. units (second, meters, Newtons, ...)
Angles are in degrees

endheader
time	SC_y	SC_z	SC_x	AC_y	AC_z	AC_x	GH_y	GH_z	GH_yy	EL_x	PS_y
       0.0              -18.33          8.157          78.71          43.45         -11.65          10.79          56.85         -3.475          44.62          74.69          50.33
   0.00644              -18.33          8.156          78.71          43.45         -11.65          10.79          56.84         -3.469          44.62          74.69          50.32
   0.01288              -18.33          8.156          78.71          43.45         -11.65          10.79          56.83         -3.463          44.61           74.7          50.32
   0.01932              -18.34          8.156           78.7          43.45         -11.64          10.79          56.82         -3.456          44.61           74.7          50.31
   0.02576              -18.34          8.155           78.7          43.44         -11.64          10.79           56.8         -3.449          44.61           74.7           50.3
    0.0322              -18.34          8.155          78.69          43.44         -11.64           10.8          56.79         -3.441           44.6           74.7           50.3
   0.03864              -18.34          8.154          78.69          43.44         -11.64           10.8          56.78         -3.433           44.6          74.71          50.29
   0.04508              -18.34          8.154          78.68          43.44         -11.64           10.8          56.76         -3.424           44.6          74.71          50.28
   0.05152              -18.34          8.153          78.68          43.43         -11.63           10.8          56.74         -3.415          44.59          74.71          50.27
   0.05796              -18.35          8.153          78.67          43.43         -11.63           10.8          56.73         -3.405          44.59          74.71          50.26
    0.0644              -18.35          8.152          78.67          43.43         -11.63          10.81          56.71         -3.394          44.58          74.72          50.25
   0.07084              -18.35          8.152          78.66          43.43         -11.62          10.81          56.69         -3.382          44.58          74.72          50.23
   0.07728              -18.35          8.151          78.65          43.42         -11.62          10.81          56.66          -3.37          44.57          74.73          50.22
   0.08372              -18.36           8.15          78.65          43.42         -11.62          10.81          56.64         -3.356          44.57          74.73          50.21
   0.09016              -18.36          8.149          78.64          43.41         -11.61          10.82          56.61         -3.341          44.56          74.73          50.19
    0.0966              -18.36          8.149          78.63          43.41         -11.61          10.82          56.59         -3.325          44.55          74.74          50.17
     0.103              -18.37          8.148          78.62           43.4          -11.6          10.82          56.55         -3.308          44.54          74.74          50.16
    0.1095              -18.37          8.147          78.61           43.4          -11.6          10.83          56.52         -3.289          44.53          74.75          50.14
    0.1159              -18.37          8.146           78.6          43.39         -11.59          10.83          56.48         -3.268          44.53          74.76          50.11
    0.1224              -18.38          8.144          78.59          43.39         -11.59          10.84          56.44         -3.246          44.52          74.76          50.09
    0.1288              -18.39          8.143          78.57          43.38         -11.58          10.84           56.4         -3.221           44.5          74.77          50.06
    0.1352              -18.39          8.141          78.56          43.37         -11.57          10.85          56.35         -3.194          44.49          74.78          50.04
    0.1417               -18.4           8.14          78.54          43.36         -11.56          10.85           56.3         -3.163          44.48          74.79           50.0
    0.1481               -18.4          8.138          78.52          43.35         -11.55          10.86          56.24          -3.13          44.46           74.8          49.97
    0.1546              -18.41          8.136           78.5          43.34         -11.54          10.87          56.17         -3.093          44.45          74.81          49.93
     0.161              -18.42          8.134          78.48          43.33         -11.53          10.88           56.1         -3.051          44.43          74.83          49.89
    0.1674              -18.43          8.131          78.45          43.32         -11.52          10.89          56.02         -3.005          44.41          74.84          49.84
    0.1739              -18.44          8.128          78.42           43.3         -11.51           10.9          55.93         -2.953          44.38          74.86          49.78
    0.1803              -18.45          8.125          78.39          43.28         -11.49          10.91          55.82         -2.894          44.35          74.88          49.72
    0.1868              -18.47          8.122          78.35          43.27         -11.47          10.92           55.7         -2.826          44.32           74.9          49.65
    0.1932              -18.48          8.117          78.31          43.24         -11.45          10.94          55.57          -2.75          44.29          74.92          49.57
    0.1996               -18.5          8.113          78.26          43.22         -11.43          10.96          55.41         -2.662          44.25          74.95          49.48
    0.2061              -18.52          8.107           78.2          43.19          -11.4          10.98          55.23         -2.561           44.2          74.98          49.37
    0.2125              -18.55          8.101          78.14          43.16         -11.36           11.0          55.02         -2.443          44.15          75.02          49.25
     0.219              -18.58          8.093          78.06          43.12         -11.33          11.03          54.78         -2.305          44.09          75.06          49.11
    0.2254              -18.61          8.084          77.97          43.07         -11.28          11.06          54.49         -2.142          44.01          75.11          48.94
    0.2318              -18.65          8.074          77.86          43.01         -11.23           11.1          54.15         -1.949          43.93          75.17          48.74
    0.2383               -18.7          8.061          77.73          42.95         -11.16          11.15          53.74         -1.718          43.82          75.24          48.49
    0.2447              -18.76          8.046          77.58          42.87         -11.09          11.21          53.25         -1.438          43.69          75.33           48.2
    0.2512              -18.84          8.028          77.39          42.77         -10.99          11.28          52.64         -1.095          43.54          75.44          47.84
    0.2576              -18.92          8.005          77.15          42.65         -10.88          11.37           51.9        -0.6729          43.34          75.57           47.4
     0.264              -19.04          7.976          76.86           42.5         -10.73          11.47          50.96        -0.1463           43.1          75.74          46.85
    0.2705              -19.18           7.94          76.49          42.31         -10.55          11.61          49.79         0.5172           42.8          75.95          46.16
